<?xml version="1.0" encoding="UTF-8" standalone="no"?>
<!-- Created with Inkscape (http://www.inkscape.org/) -->

<svg
   version="1.1"
   id="svg6569"
   xml:space="preserve"
   width="1066.6667"
   height="1066.6667"
   viewBox="0 0 1066.6667 1066.6667"
   sodipodi:docname="wet-paint-publicdomainvectors.org.svg"
   inkscape:version="1.1.2 (b8e25be833, 2022-02-05)"
   xmlns:inkscape="http://www.inkscape.org/namespaces/inkscape"
   xmlns:sodipodi="http://sodipodi.sourceforge.net/DTD/sodipodi-0.dtd"
   xmlns="http://www.w3.org/2000/svg"
   xmlns:svg="http://www.w3.org/2000/svg"><defs
     id="defs6573"><clipPath
       clipPathUnits="userSpaceOnUse"
       id="clipPath6583"><path
         d="M 0,800 H 800 V 0 H 0 Z"
         id="path6581" /></clipPath><radialGradient
       fx="0"
       fy="0"
       cx="0"
       cy="0"
       r="1"
       gradientUnits="userSpaceOnUse"
       gradientTransform="matrix(557.53662,0,0,-557.53662,399.1377,400)"
       spreadMethod="pad"
       id="radialGradient6603"><stop
         style="stop-opacity:1;stop-color:#ffffff"
         offset="0"
         id="stop6597" /><stop
         style="stop-opacity:1;stop-color:#ffffff"
         offset="0.66129"
         id="stop6599" /><stop
         style="stop-opacity:1;stop-color:#c8c8c8"
         offset="1"
         id="stop6601" /></radialGradient><linearGradient
       x1="0"
       y1="0"
       x2="1"
       y2="0"
       gradientUnits="userSpaceOnUse"
       gradientTransform="matrix(36.54541,0,0,-36.54541,381.93701,357.79883)"
       spreadMethod="pad"
       id="linearGradient6639"><stop
         style="stop-opacity:1;stop-color:#e4e0de"
         offset="0"
         id="stop6621" /><stop
         style="stop-opacity:1;stop-color:#e4e0de"
         offset="0.0292797"
         id="stop6623" /><stop
         style="stop-opacity:1;stop-color:#adb2b5"
         offset="0.174157"
         id="stop6625" /><stop
         style="stop-opacity:1;stop-color:#e1e3e5"
         offset="0.331461"
         id="stop6627" /><stop
         style="stop-opacity:1;stop-color:#f1f1f1"
         offset="0.494382"
         id="stop6629" /><stop
         style="stop-opacity:1;stop-color:#f1f1f1"
         offset="0.51059159"
         id="stop6631" /><stop
         style="stop-opacity:1;stop-color:#999fa4"
         offset="0.91573"
         id="stop6633" /><stop
         style="stop-opacity:1;stop-color:#999fa4"
         offset="0.9830691"
         id="stop6635" /><stop
         style="stop-opacity:1;stop-color:#999fa4"
         offset="1"
         id="stop6637" /></linearGradient><linearGradient
       x1="0"
       y1="0"
       x2="1"
       y2="0"
       gradientUnits="userSpaceOnUse"
       gradientTransform="matrix(561.52911,-561.52911,-561.52911,-561.52911,118.4458,679.55762)"
       spreadMethod="pad"
       id="linearGradient6659"><stop
         style="stop-opacity:1;stop-color:#f9ed32"
         offset="0"
         id="stop6655" /><stop
         style="stop-opacity:1;stop-color:#fdc70c"
         offset="1"
         id="stop6657" /></linearGradient><clipPath
       clipPathUnits="userSpaceOnUse"
       id="clipPath6677"><path
         d="M 117.274,692.667 H 489.759 V 104.92 H 117.274 Z"
         id="path6675" /></clipPath><linearGradient
       x1="0"
       y1="0"
       x2="1"
       y2="0"
       gradientUnits="userSpaceOnUse"
       gradientTransform="matrix(321.29965,-185.50244,-185.50244,-321.29965,43.116211,552.51514)"
       spreadMethod="pad"
       id="linearGradient6689"><stop
         style="stop-opacity:1;stop-color:#000000"
         offset="0"
         id="stop6683" /><stop
         style="stop-opacity:1;stop-color:#6d6e71"
         offset="0.97551"
         id="stop6685" /><stop
         style="stop-opacity:1;stop-color:#6d6e71"
         offset="1"
         id="stop6687" /></linearGradient></defs><sodipodi:namedview
     id="namedview6571"
     pagecolor="#ffffff"
     bordercolor="#666666"
     borderopacity="1.0"
     inkscape:pageshadow="2"
     inkscape:pageopacity="0.0"
     inkscape:pagecheckerboard="0"
     showgrid="false"
     inkscape:zoom="0.77906244"
     inkscape:cx="533.33337"
     inkscape:cy="533.33337"
     inkscape:window-width="1920"
     inkscape:window-height="1018"
     inkscape:window-x="-8"
     inkscape:window-y="-8"
     inkscape:window-maximized="1"
     inkscape:current-layer="g6575" /><g
     id="g6575"
     inkscape:groupmode="layer"
     inkscape:label="wet-paint-publicdomainvectors.org"
     transform="matrix(1.3333333,0,0,-1.3333333,0,1066.6667)"><g
       id="g6585"><g
         id="g6587"><g
           id="g6593"><g
             id="g6595"><path
               d="M 800,0 H 0 v 800 h 800 z"
               style="fill:url(#radialGradient6603);stroke:none"
               id="path6605" /></g></g></g></g><path
       d="m 800,502.189 c -61.823,0.148 -123.646,0.302 -185.47,0.463 3.053,7.996 4.61,12.076 7.791,20.415 h -31.896 c -3.219,-8.303 -4.795,-12.366 -7.886,-20.332 -74.29,0.194 -148.581,0.384 -222.871,0.557 -8.703,0.02 -18.503,-6.308 -21.66,-13.902 C 283.438,358.189 227.842,227.486 170.235,97.588 167.113,90.555 171.621,84.707 180.375,84.722 260,84.858 339.626,84.997 419.252,85.135 407.131,54.119 395.027,23.096 382.937,-7.933 h 36.545 c 11.776,31.049 23.565,62.093 35.371,93.13 78.976,0.138 157.953,0.275 236.929,0.41 8.753,0.015 17.777,5.868 20.066,12.846 28.395,86.439 58.002,172.43 88.152,258.244 z"
       style="fill:#e6e7e8;fill-opacity:1;fill-rule:nonzero;stroke:none"
       id="path6607" /><g
       id="g6609"><g
         id="g6611"><g
           id="g6617"><g
             id="g6619"><path
               d="M 381.937,714.598 V 401.455 1 h 36.545 v 400.455 313.143 z"
               style="fill:url(#linearGradient6639);stroke:none"
               id="path6641" /></g></g></g></g><g
       id="g6643"><g
         id="g6645"><g
           id="g6651"><g
             id="g6653"><path
               d="m 676.238,120.92 c 0,-8.837 -7.163,-16 -16,-16 H 138.182 c -8.837,0 -16,7.163 -16,16 v 555.747 c 0,8.836 7.163,16 16,16 h 522.056 c 8.837,0 16,-7.164 16,-16 z"
               style="fill:url(#linearGradient6659);stroke:none"
               id="path6661" /></g></g></g></g><path
       d="m 138.182,112.92 c -4.411,0 -8,3.589 -8,8 v 555.747 c 0,4.411 3.589,8 8,8 h 522.056 c 4.411,0 8,-3.589 8,-8 V 120.92 c 0,-4.411 -3.589,-8 -8,-8 z m 538.056,563.747 c 0,8.836 -7.163,16 -16,16 H 138.182 c -8.837,0 -16,-7.164 -16,-16 V 120.92 c 0,-8.837 7.163,-16 16,-16 h 522.056 c 8.837,0 16,7.163 16,16 z"
       style="fill:#000000;fill-opacity:1;fill-rule:nonzero;stroke:none"
       id="path6663" /><path
       d="m 640.568,661.18 h -7.599 v -47.911 h 7.599 z m 0,-59.124 h -7.599 v -7.599 h 7.599 z M 622.407,661.18 H 614.9 v -58.198 l -48.93,58.198 h -10.287 v -66.723 h 7.506 v 58.197 l 48.931,-58.197 h 10.287 z m -76.916,-11.12 c 0,6.209 -4.912,11.12 -11.122,11.12 h -44.481 c -6.21,0 -11.121,-4.911 -11.121,-11.12 v -44.482 c 0,-6.21 4.911,-11.121 11.121,-11.121 h 44.481 c 6.21,0 11.122,4.911 11.122,11.121 z m -79.325,11.12 h -7.507 v -66.723 h 7.507 z m -14.549,0 h -66.723 v -7.506 h 29.655 v -59.217 h 7.507 v 59.217 h 29.561 z m -73.58,0 h -7.506 v -55.602 c 0,-1.947 -1.668,-3.615 -3.614,-3.615 h -44.482 c -1.947,0 -3.615,1.668 -3.615,3.615 v 55.602 h -7.506 v -55.602 c 0,-6.21 4.912,-11.121 11.121,-11.121 h 44.482 c 6.208,0 11.12,4.911 11.12,11.121 z m -77.102,-11.12 c 0,6.209 -4.912,11.12 -11.121,11.12 h -44.482 c -6.209,0 -11.12,-4.911 -11.12,-11.12 v -55.603 h 7.506 v 24.372 h 51.711 v -24.372 h 7.506 z m -76.546,11.12 h -55.417 c -6.209,0 -11.121,-4.911 -11.121,-11.12 v -44.482 c 0,-6.21 4.912,-11.121 11.121,-11.121 h 55.417 v 7.506 h -55.417 c -1.947,0 -3.615,1.668 -3.615,3.615 v 44.482 c 0,1.946 1.668,3.614 3.615,3.614 h 55.417 z m 436.849,12.611 v -91.865 c 0,-2.185 -1.771,-3.956 -3.957,-3.956 H 141.137 c -2.184,0 -3.955,1.771 -3.955,3.955 v 92.028 c 0,2.051 1.662,3.714 3.714,3.714 h 516.466 c 2.141,0 3.876,-1.736 3.876,-3.876 M 534.369,653.674 h -44.481 c -1.947,0 -3.615,-1.668 -3.615,-3.614 v -44.482 c 0,-1.947 1.668,-3.615 3.615,-3.615 h 44.481 c 1.947,0 3.615,1.668 3.615,3.615 v 44.482 c 0,1.946 -1.668,3.614 -3.615,3.614 m -240.94,-3.614 v -23.724 h -51.711 v 23.724 c 0,1.946 1.668,3.614 3.614,3.614 h 44.482 c 1.946,0 3.615,-1.668 3.615,-3.614"
       style="fill:#000000;fill-opacity:1;fill-rule:nonzero;stroke:none"
       id="path6665" /><path
       d="m 587.736,152.279 c -0.804,0 -1.609,0.69 -1.609,1.609 v 59.986 c 0,0.804 -0.689,1.379 -1.493,1.379 h -11.492 c -0.69,0 -1.495,0.919 -1.495,1.608 v 20.455 c 0,0.69 0.346,1.149 1.036,1.149 h 49.183 c 0.805,0 1.494,-0.459 1.494,-1.379 v -20.225 c 0,-0.919 -0.689,-1.608 -1.609,-1.608 H 610.26 c -0.805,0 -1.379,-0.575 -1.379,-1.609 v -59.872 c 0,-0.803 -0.69,-1.493 -1.609,-1.493 z m -70.904,84.693 c 0,0.803 0.575,1.493 1.265,1.493 h 19.42 c 0.804,0 1.379,-0.459 1.609,-1.379 l 6.895,-25.856 c 0.23,-0.918 0.575,-1.378 0.804,-1.378 0.345,0 0.69,0.46 0.69,1.493 v 25.627 c 0,0.803 0.575,1.493 1.38,1.493 h 17.236 c 0.919,0 1.494,-0.804 1.494,-1.609 v -83.084 c 0,-0.803 -0.459,-1.493 -1.265,-1.493 h -21.489 c -0.459,0 -1.148,0.46 -1.263,1.15 l -5.056,20.684 c -0.231,1.149 -0.69,1.609 -1.035,1.609 -0.344,0 -0.575,-0.46 -0.575,-1.609 v -20.341 c 0,-0.803 -0.688,-1.493 -1.494,-1.493 h -17.466 c -0.69,0 -1.15,0.69 -1.15,1.609 z m -25.166,-84.693 c -0.805,0 -1.494,0.804 -1.494,1.723 v 83.314 c 0,0.575 0.46,1.149 1.035,1.149 h 19.649 c 0.805,0 1.38,-0.459 1.38,-1.149 v -83.544 c 0,-0.689 -0.575,-1.493 -1.38,-1.493 z m -31.257,42.864 c -0.23,1.608 -0.46,2.642 -0.805,2.642 -0.344,0 -0.574,-0.804 -0.804,-2.642 l -1.494,-10.918 c -0.115,-0.574 0.115,-1.149 0.689,-1.149 3.678,0 4.024,0 3.908,1.034 z m 10.112,43.322 c 0.805,0 1.379,-0.69 1.495,-1.493 l 15.744,-82.165 c 0.229,-1.264 -0.346,-2.528 -1.61,-2.528 h -18.617 c -0.689,0 -1.379,0.46 -1.493,1.15 l -2.299,17.236 c -0.114,0.575 -0.574,0.919 -1.148,0.919 h -6.206 c -0.46,0 -0.919,-0.459 -1.033,-1.148 l -2.184,-16.893 c -0.115,-0.804 -0.92,-1.264 -1.494,-1.264 h -18.961 c -1.035,0 -1.61,0.804 -1.38,1.953 l 15.399,82.854 c 0.115,0.575 0.69,1.379 1.379,1.379 z M 410.65,206.52 c 0,-0.46 0.345,-1.265 1.149,-1.265 1.724,0 2.413,1.494 2.413,3.792 v 4.712 c 0,1.839 -0.919,3.102 -2.413,3.102 -0.344,0 -0.574,0 -0.804,-0.114 -0.229,-0.115 -0.345,-0.575 -0.345,-0.92 z m -23.902,29.993 c 0,1.148 0.575,1.952 1.609,1.952 h 26.776 c 5.285,0 22.293,-3.791 22.293,-25.511 0,-10.686 -9.538,-21.259 -20.571,-21.259 -5.63,0 -6.205,0 -6.205,-1.379 v -36.428 c 0,-0.919 -0.689,-1.609 -1.953,-1.609 h -20.11 c -1.034,0 -1.839,0.919 -1.839,2.069 z M 312.63,152.279 c -0.805,0 -1.609,0.69 -1.609,1.609 v 59.986 c 0,0.804 -0.689,1.379 -1.494,1.379 h -11.491 c -0.69,0 -1.494,0.919 -1.494,1.608 v 20.455 c 0,0.69 0.345,1.149 1.034,1.149 h 49.184 c 0.804,0 1.493,-0.459 1.493,-1.379 v -20.225 c 0,-0.919 -0.689,-1.608 -1.608,-1.608 h -11.492 c -0.804,0 -1.379,-0.575 -1.379,-1.609 v -59.872 c 0,-0.803 -0.689,-1.493 -1.608,-1.493 z m -63.779,84.693 c 0,0.689 0.689,1.493 1.494,1.493 h 40.795 c 0.689,0 1.149,-0.574 1.149,-1.264 v -20.684 c 0,-0.69 -0.575,-1.149 -1.264,-1.149 h -19.191 c -0.46,0 -0.804,-0.346 -0.804,-0.805 v -6.435 c 0,-0.46 0.459,-0.805 0.804,-0.805 h 9.078 c 0.46,0 0.805,-0.344 0.805,-0.803 v -20.916 c 0,-0.574 -0.46,-1.034 -0.92,-1.034 h -9.308 c -0.459,0 -0.804,-0.345 -0.804,-0.919 v -6.781 c 0,-0.459 0.345,-0.804 0.689,-0.804 h 19.881 c 0.804,0 1.264,-0.574 1.264,-1.148 v -21.375 c 0,-0.689 -0.575,-1.264 -1.264,-1.264 h -41.14 c -0.69,0 -1.264,0.69 -1.264,1.493 z m -54.241,1.493 c 0.804,0 1.608,-0.574 1.723,-1.493 l 2.529,-27.236 c 0.115,-1.264 0.459,-2.183 0.919,-2.183 0.459,0 0.92,0.919 1.034,2.183 l 2.758,27.236 c 0.23,0.919 0.574,1.493 1.379,1.493 h 11.721 c 0.575,0 1.265,-0.574 1.38,-1.264 l 2.988,-27.465 c 0.114,-1.264 0.459,-2.183 0.918,-2.183 0.46,0 0.92,0.919 1.035,2.183 l 2.298,27.35 c 0.115,0.805 0.575,1.379 1.264,1.379 h 18.617 c 1.149,0 1.494,-0.69 1.378,-1.609 l -10.687,-82.854 c -0.114,-1.148 -0.804,-1.723 -1.493,-1.723 h -16.778 c -0.69,0 -1.264,0.575 -1.379,1.264 l -4.367,27.81 c -0.115,1.034 -0.459,1.838 -0.919,1.838 -0.46,0 -0.805,-0.919 -0.92,-1.954 l -4.022,-27.579 c -0.23,-0.804 -0.574,-1.379 -1.263,-1.379 h -17.008 c -0.805,0 -1.494,0.69 -1.609,1.493 l -11.032,83.2 c -0.115,1.034 0.46,1.493 1.264,1.493 z"
       style="fill:#000000;fill-opacity:1;fill-rule:nonzero;stroke:none"
       id="path6667" /><path
       d="m 352.317,294.357 c 0,-3.756 -3.046,-6.802 -6.803,-6.802 -3.757,0 -6.803,3.046 -6.803,6.802 0,3.757 3.046,14.912 6.803,14.912 3.757,0 6.803,-11.155 6.803,-14.912 m 25.847,-30.082 c 0,-7.137 -5.786,-12.923 -12.924,-12.923 -7.137,0 -12.923,5.786 -12.923,12.923 0,7.138 5.786,28.329 12.923,28.329 7.138,0 12.924,-21.191 12.924,-28.329 m -10.285,70.17 c -0.003,-0.009 -0.002,-0.017 -0.005,-0.026 -2.518,-7.15 -4.104,-15.859 -4.594,-20.846 -0.037,-0.37 -0.284,-0.686 -0.635,-0.811 -0.352,-0.124 -0.743,-0.034 -1.005,0.231 -10.614,10.74 -52.316,52.964 -52.786,53.44 -0.175,0.176 -0.578,0.449 -0.898,0.725 -0.304,0.262 -0.413,0.685 -0.274,1.061 1.097,2.969 6.111,12.412 10.4,18.765 0.764,1.108 2.579,1.474 3.402,1.117 0.824,-0.357 6.399,-5.508 7.742,-8.402 1.342,-2.892 5.559,-10.447 8.404,-12.437 2.847,-1.99 12.831,-5.085 13.622,-2.702 1.135,3.415 4.373,0.668 3.49,-4.824 -0.323,-2.008 2.096,-12.39 4.853,-15.29 2.757,-2.899 9.431,-6.442 8.284,-10.001 m 24.099,27.038 -50.714,51.16 c -0.353,0.356 -0.917,0.382 -1.3,0.06 -3.081,-2.589 -15.825,-13.322 -20.457,-17.559 -5.284,-4.835 -15.286,-23.62 -15.907,-26.653 -0.621,-3.034 2.408,-4.869 2.408,-4.869 0,0 52.508,-53.165 55.128,-55.809 2.62,-2.642 5.964,-0.94 5.982,3.109 0.018,4.049 2.081,16.607 5.567,24.884 3.069,7.288 16.206,21.13 19.301,24.334 0.363,0.376 0.359,0.972 -0.008,1.343 m 107.755,157.256 c -2.115,2.134 -2.099,5.578 0.035,7.693 2.132,2.115 5.577,2.1 7.692,-0.034 2.115,-2.133 2.1,-5.577 -0.034,-7.692 -2.133,-2.115 -5.577,-2.1 -7.693,0.033 M 433.017,398.22 c 7.128,12.932 8.677,53.982 25.604,70.76 16.926,16.779 34.33,25.027 47.351,37.934 8.739,8.663 13.422,21.419 15.556,28.871 0.37,1.292 0.013,2.684 -0.933,3.638 -0.948,0.954 -2.334,1.319 -3.63,0.96 -7.47,-2.07 -20.264,-6.64 -29.002,-15.302 -13.021,-12.907 -21.42,-30.238 -38.347,-47.017 -16.926,-16.779 -57.987,-17.97 -70.982,-24.984 -11.84,-6.392 -33.058,-31.821 -36.735,-36.288 -0.313,-0.381 -0.288,-0.937 0.059,-1.287 7.695,-7.762 45.446,-45.846 53.165,-53.632 0.347,-0.351 0.901,-0.38 1.285,-0.069 4.5,3.636 30.114,24.632 36.609,36.416"
       style="fill:#000000;fill-opacity:1;fill-rule:nonzero;stroke:none"
       id="path6669" /></g></svg>
